<?xml version="1.0" encoding="UTF-8"?>
<!DOCTYPE svg PUBLIC "-//W3C//DTD SVG 1.0//EN" "http://www.w3.org/TR/2001/REC-SVG-20010904/DTD/svg10.dtd">
<!-- Creator: CorelDRAW 2021.5 -->
<svg xmlns="http://www.w3.org/2000/svg" xml:space="preserve" width="10.7736cm" height="3.44398cm" version="1.0" style="shape-rendering:geometricPrecision; text-rendering:geometricPrecision; image-rendering:optimizeQuality; fill-rule:evenodd; clip-rule:evenodd"
viewBox="0 0 10759.38 3439.43"
 xmlns:xlink="http://www.w3.org/1999/xlink"
 xmlns:xodm="http://www.corel.com/coreldraw/odm/2003">
 <defs>
  <style type="text/css">
   <![CDATA[
    .fil0 {fill:#336699}
    .fil1 {fill:#FF6800}
   ]]>
  </style>
 </defs>
 <g id="Camada_x0020_1">
  <metadata id="CorelCorpID_0Corel-Layer"/>
  <path class="fil0" d="M8259.63 1719.71c0,156.54 25.58,299.1 76.71,427.44l-1.32 -3.31 -569.15 574.88c8.55,12.42 17.27,24.74 26.19,36.94 -82.99,-113.73 -150.49,-236.14 -202.21,-366.92 -82.87,-206.8 -123.93,-430.31 -123.93,-669.03 0,-239.48 41.06,-463 123.93,-671.31 82.1,-209.07 203.75,-395.34 364.17,-560.31 151.29,-157.38 327.67,-278.26 528.38,-361.89 199.95,-84.39 410.54,-126.2 630.26,-126.2 219.71,0 430.3,42.58 631.77,126.97 133.86,56.07 257.65,128.93 371.38,218.11l-530.55 535.92c30.62,23.34 60.15,49.28 88.59,77.87 -154.86,-155.52 -342.11,-233.58 -561.2,-233.58 -240.25,0 -442.47,95.03 -606.69,284.34 -164.22,189.31 -246.33,426.51 -246.33,710.08zm96.36 473.36c1.53,3.33 3.07,6.64 4.62,9.94 -1.56,-3.3 -3.11,-6.61 -4.62,-9.94zm14.84 30.9c29.27,58.25 64.31,113.27 105.14,165.03 -40.83,-51.76 -75.87,-106.78 -105.14,-165.03zm105.3 165.22c4.75,6.03 9.6,12.01 14.51,17.96 -4.91,-5.94 -9.76,-11.92 -14.51,-17.96zm22.42 27.4c2.46,2.9 4.92,5.77 7.41,8.64 7.41,8.56 14.92,16.92 22.5,25.09 -7.58,-8.17 -15.08,-16.53 -22.5,-25.09 -2.49,-2.87 -4.95,-5.75 -7.41,-8.64zm30.92 34.81c2.42,2.61 4.84,5.19 7.28,7.75 -2.44,-2.56 -4.86,-5.14 -7.28,-7.75zm16.22 17.02c2.44,2.51 4.88,4.98 7.34,7.45 -2.46,-2.47 -4.9,-4.94 -7.34,-7.45zm7.85 7.95c2.41,2.41 4.82,4.79 7.24,7.16 -2.42,-2.37 -4.83,-4.74 -7.24,-7.16zm8.49 8.38l6.49 6.27c-2.18,-2.07 -4.33,-4.16 -6.49,-6.27zm81.4 70.27c135.76,102.92 292.17,154.55 469.22,154.55 241.76,0 444.75,-94.28 608.2,-282.82 163.46,-189.3 244.81,-424.99 244.81,-707.04 0,-155.97 -24.62,-297.92 -73.96,-425.59l573.24 -579.02c69.79,101.58 127.43,211.06 172.79,328.74 81.35,208.3 121.65,434.11 121.65,675.87 0,202.23 -28.13,392.3 -84.4,570.2 -57.01,177.9 -140.64,340.6 -252.41,488.09 -157.37,209.07 -350.48,371.77 -580.07,487.32 -229.61,116.32 -472.88,174.1 -729.85,174.1 -218.19,0 -427.26,-42.57 -627.22,-126.96 -134.53,-56.77 -258.74,-130.77 -372.63,-221.5l530.63 -535.94zm1127.86 -1481.91c-1.92,-2.65 -3.86,-5.28 -5.82,-7.91 1.96,2.64 3.9,5.26 5.82,7.91zm-13.98 -18.72c-1.99,-2.6 -4,-5.18 -6.02,-7.76 2.02,2.58 4.03,5.16 6.02,7.76zm-59.87 -70.97c-5.02,-5.42 -10.08,-10.76 -15.18,-16.01 5.1,5.25 10.16,10.59 15.18,16.01zm-15.69 -16.53c-2.59,-2.66 -5.18,-5.3 -7.79,-7.93 2.61,2.63 5.2,5.27 7.79,7.93zm-1696.67 2011.05c-10.45,-10.24 -20.81,-20.62 -31.06,-31.18 -28.5,-29.18 -55.78,-59.05 -81.83,-89.62 26.06,30.56 53.33,60.43 81.83,89.6 10.26,10.56 20.61,20.95 31.06,31.2zm-148.77 -164.32c-3.44,-4.28 -6.83,-8.6 -10.22,-12.92 3.39,4.32 6.78,8.63 10.22,12.92z"/>
  <rect class="fil1" x="-0.03" y="1363.48" width="2713.66" height="690.55" rx="147.79" ry="147.79"/>
  <path class="fil0" d="M171.96 828.37l2788.35 0c108.4,0 197.07,-88.68 197.07,-197.07l0 -409.33c0,-108.4 -88.67,-197.07 -197.07,-197.07l-2788.35 0c-94.58,0 -171.96,77.39 -171.96,171.96l0 459.54c0,94.57 77.38,171.96 171.96,171.96z"/>
  <path class="fil0" d="M171.96 3392.55l2837.64 0c81.28,0 147.77,-66.49 147.77,-147.76l0 -507.92c0,-81.28 -66.49,-147.77 -147.77,-147.77l-2837.64 0c-94.58,0 -171.96,77.38 -171.96,171.96l0 459.53c0,94.58 77.38,171.96 171.96,171.96z"/>
  <path class="fil1" d="M3676.09 643.21l1624.38 1624.37 568.14 -568.14 -1624.38 -1624.37c-66.86,-66.86 -176.33,-66.86 -243.19,0l-324.95 324.94c-66.85,66.87 -66.87,176.31 0,243.2zm1716.35 1716.35l995.55 995.54c76.63,76.63 202.04,76.63 278.69,-0.02l289.43 -289.43c76.65,-76.64 76.63,-202.07 0.01,-278.69l-719.63 -719.63 -568.13 568.12 -275.92 -275.89z"/>
  <path class="fil1" d="M6963.4 643.2l-2711.89 2711.9c-76.64,76.63 -202.04,76.63 -278.69,-0.02l-289.43 -289.43c-76.65,-76.65 -76.64,-202.07 -0.02,-278.69l2711.9 -2711.89c66.86,-66.86 176.33,-66.86 243.19,0l324.94 324.94c66.86,66.87 66.88,176.32 0,243.19z"/>
 </g>
</svg>
